<?xml version="1.0" encoding="UTF-8" standalone="no"?>
<!-- Generator: Adobe Illustrator 18.1.1, SVG Export Plug-In . SVG Version: 6.00 Build 0)  -->

<svg
   xmlns:dc="http://purl.org/dc/elements/1.1/"
   xmlns:cc="http://creativecommons.org/ns#"
   xmlns:rdf="http://www.w3.org/1999/02/22-rdf-syntax-ns#"
   xmlns:svg="http://www.w3.org/2000/svg"
   xmlns="http://www.w3.org/2000/svg"
   xmlns:sodipodi="http://sodipodi.sourceforge.net/DTD/sodipodi-0.dtd"
   xmlns:inkscape="http://www.inkscape.org/namespaces/inkscape"
   version="1.1"
   id="Capa_1"
   x="0px"
   y="0px"
   viewBox="0 0 400 399.99999"
   xml:space="preserve"
   sodipodi:docname="mpsoc-mpram.svg"
   width="400"
   height="400"
   inkscape:version="0.92.4 5da689c313, 2019-01-14"><metadata
   id="metadata45"><rdf:RDF><cc:Work
       rdf:about=""><dc:format>image/svg+xml</dc:format><dc:type
         rdf:resource="http://purl.org/dc/dcmitype/StillImage" /><dc:title></dc:title></cc:Work></rdf:RDF></metadata><defs
   id="defs43" /><sodipodi:namedview
   pagecolor="#ffffff"
   bordercolor="#666666"
   borderopacity="1"
   objecttolerance="10"
   gridtolerance="10"
   guidetolerance="10"
   inkscape:pageopacity="0"
   inkscape:pageshadow="2"
   inkscape:window-width="1533"
   inkscape:window-height="845"
   id="namedview41"
   showgrid="false"
   inkscape:zoom="0.64"
   inkscape:cx="180.4232"
   inkscape:cy="189.61509"
   inkscape:window-x="67"
   inkscape:window-y="27"
   inkscape:window-maximized="1"
   inkscape:current-layer="Capa_1" />

<g
   id="g10"
   transform="translate(0,-72.79001)">
</g>
<g
   id="g12"
   transform="translate(0,-72.79001)">
</g>
<g
   id="g14"
   transform="translate(0,-72.79001)">
</g>
<g
   id="g16"
   transform="translate(0,-72.79001)">
</g>
<g
   id="g18"
   transform="translate(0,-72.79001)">
</g>
<g
   id="g20"
   transform="translate(0,-72.79001)">
</g>
<g
   id="g22"
   transform="translate(0,-72.79001)">
</g>
<g
   id="g24"
   transform="translate(0,-72.79001)">
</g>
<g
   id="g26"
   transform="translate(0,-72.79001)">
</g>
<g
   id="g28"
   transform="translate(0,-72.79001)">
</g>
<g
   id="g30"
   transform="translate(0,-72.79001)">
</g>
<g
   id="g32"
   transform="translate(0,-72.79001)">
</g>
<g
   id="g34"
   transform="translate(0,-72.79001)">
</g>
<g
   id="g36"
   transform="translate(0,-72.79001)">
</g>
<g
   id="g38"
   transform="translate(0,-72.79001)">
</g>
<g
   id="g8-2-356"
   transform="matrix(0,-0.4902141,0.84603979,0,0,455.88441)"><g
     id="g6-7-2"><g
       id="g4-0-91"><path
         style="fill:#010002"
         d="m 353.451,213.05 h 5.34 V 39.326 H 306.069 V 0 H 133.443 l 0.683,6.926 c 0,7.608 -6.21,13.778 -13.745,13.794 L 114,20.297 v 433.749 l 5.666,-0.301 c 0.317,0 0.634,-0.049 0.675,-0.073 7.6,0 13.778,6.17 13.778,13.77 v 5.349 H 306.055 V 445.39 h 52.722 V 259.75 h -5.324 c -12.876,0 -23.345,-10.494 -23.345,-23.353 -0.003,-12.886 10.467,-23.347 23.343,-23.347 z M 261.11,436.082 H 152.74 v -47.885 h 108.37 z m 0,-63.566 H 152.74 v -47.885 h 108.37 z m 0,-66.654 H 152.74 v -47.91 h 108.37 z m 0,-88.406 H 152.74 v -47.877 h 108.37 z m 0,-63.566 H 152.74 v -47.894 h 108.37 z m 0,-66.67 H 152.74 V 39.326 h 108.37 z m 87,182.771 v 164.717 h -42.041 v -31.165 h 31.01 v -10.681 h -31.01 v -11.803 h 31.01 v -10.665 h -31.01 v -11.437 h 31.01 v -10.681 h -31.01 v -10.242 h 31.01 v -10.681 h -31.01 V 315.55 h 31.01 v -10.68 h -31.01 v -11.404 h 31.01 v -10.681 h -31.01 v -87.382 h 31.01 v -10.681 h -31.01 v -11.811 h 31.01 v -10.673 h -31.01 v -11.421 h 31.01 v -10.673 h -31.01 v -10.266 h 31.01 v -10.681 h -31.01 v -11.795 h 31.01 v -10.68 h -31.01 V 85.309 h 31.01 V 74.628 h -31.01 V 50.023 h 42.041 v 152.744 c -16.493,2.593 -28.702,16.704 -28.702,33.636 0,16.916 12.209,31.011 28.702,33.588 z"
         id="path2-9-2"
         inkscape:connector-curvature="0" /></g></g></g><g
   id="g8-2-35-7"
   transform="matrix(0,-0.4902141,0.84603979,0,0,175.88441)"><g
     id="g6-7-62-0"><g
       id="g4-0-9-9"><path
         style="fill:#010002"
         d="m 353.451,213.05 h 5.34 V 39.326 H 306.069 V 0 H 133.443 l 0.683,6.926 c 0,7.608 -6.21,13.778 -13.745,13.794 L 114,20.297 v 433.749 l 5.666,-0.301 c 0.317,0 0.634,-0.049 0.675,-0.073 7.6,0 13.778,6.17 13.778,13.77 v 5.349 H 306.055 V 445.39 h 52.722 V 259.75 h -5.324 c -12.876,0 -23.345,-10.494 -23.345,-23.353 -0.003,-12.886 10.467,-23.347 23.343,-23.347 z M 261.11,436.082 H 152.74 v -47.885 h 108.37 z m 0,-63.566 H 152.74 v -47.885 h 108.37 z m 0,-66.654 H 152.74 v -47.91 h 108.37 z m 0,-88.406 H 152.74 v -47.877 h 108.37 z m 0,-63.566 H 152.74 v -47.894 h 108.37 z m 0,-66.67 H 152.74 V 39.326 h 108.37 z m 87,182.771 v 164.717 h -42.041 v -31.165 h 31.01 v -10.681 h -31.01 v -11.803 h 31.01 v -10.665 h -31.01 v -11.437 h 31.01 v -10.681 h -31.01 v -10.242 h 31.01 v -10.681 h -31.01 V 315.55 h 31.01 v -10.68 h -31.01 v -11.404 h 31.01 v -10.681 h -31.01 v -87.382 h 31.01 v -10.681 h -31.01 v -11.811 h 31.01 v -10.673 h -31.01 v -11.421 h 31.01 v -10.673 h -31.01 v -10.266 h 31.01 v -10.681 h -31.01 v -11.795 h 31.01 v -10.68 h -31.01 V 85.309 h 31.01 V 74.628 h -31.01 V 50.023 h 42.041 v 152.744 c -16.493,2.593 -28.702,16.704 -28.702,33.636 0,16.916 12.209,31.011 28.702,33.588 z"
         id="path2-9-1-3"
         inkscape:connector-curvature="0" /></g></g></g><g
   id="g8-2-35-6"
   transform="matrix(0,-0.4902141,0.84603979,0,0,315.88441)"><g
     id="g6-7-62-06"><g
       id="g4-0-9-2"><path
         style="fill:#010002"
         d="m 353.451,213.05 h 5.34 V 39.326 H 306.069 V 0 H 133.443 l 0.683,6.926 c 0,7.608 -6.21,13.778 -13.745,13.794 L 114,20.297 v 433.749 l 5.666,-0.301 c 0.317,0 0.634,-0.049 0.675,-0.073 7.6,0 13.778,6.17 13.778,13.77 v 5.349 H 306.055 V 445.39 h 52.722 V 259.75 h -5.324 c -12.876,0 -23.345,-10.494 -23.345,-23.353 -0.003,-12.886 10.467,-23.347 23.343,-23.347 z M 261.11,436.082 H 152.74 v -47.885 h 108.37 z m 0,-63.566 H 152.74 v -47.885 h 108.37 z m 0,-66.654 H 152.74 v -47.91 h 108.37 z m 0,-88.406 H 152.74 v -47.877 h 108.37 z m 0,-63.566 H 152.74 v -47.894 h 108.37 z m 0,-66.67 H 152.74 V 39.326 h 108.37 z m 87,182.771 v 164.717 h -42.041 v -31.165 h 31.01 v -10.681 h -31.01 v -11.803 h 31.01 v -10.665 h -31.01 v -11.437 h 31.01 v -10.681 h -31.01 v -10.242 h 31.01 v -10.681 h -31.01 V 315.55 h 31.01 v -10.68 h -31.01 v -11.404 h 31.01 v -10.681 h -31.01 v -87.382 h 31.01 v -10.681 h -31.01 v -11.811 h 31.01 v -10.673 h -31.01 v -11.421 h 31.01 v -10.673 h -31.01 v -10.266 h 31.01 v -10.681 h -31.01 v -11.795 h 31.01 v -10.68 h -31.01 V 85.309 h 31.01 V 74.628 h -31.01 V 50.023 h 42.041 v 152.744 c -16.493,2.593 -28.702,16.704 -28.702,33.636 0,16.916 12.209,31.011 28.702,33.588 z"
         id="path2-9-1-6"
         inkscape:connector-curvature="0" /></g></g></g></svg>